<svg width="37" height="82" viewBox="0 0 37 82" fill="none" xmlns="http://www.w3.org/2000/svg">
<rect x="6.97766" y="18.0447" width="23.3333" height="46.9778" fill="#88A8AF"/>
<rect x="2" y="50.3999" width="9.64444" height="19.6" fill="#B6CACE"/>
<rect x="25.3334" y="50.3999" width="9.64444" height="19.6" fill="#B6CACE"/>
<path fill-rule="evenodd" clip-rule="evenodd" d="M5.11108 18.0444L18.6444 0V18.0444H5.11108ZM32.1778 18.0444L18.6445 0V18.0444H32.1778Z" fill="#D4E0E2"/>
<path fill-rule="evenodd" clip-rule="evenodd" d="M2 50.3999L6.82222 43.2444V50.3999H2ZM11.6445 50.4L6.82229 43.2444V50.4H11.6445Z" fill="#D4E0E2"/>
<path fill-rule="evenodd" clip-rule="evenodd" d="M30.1555 43.2445L30.1556 43.2444V43.2446L34.9777 50.4H30.1555V50.3999H25.3334L30.1555 43.2446V43.2444L30.1555 43.2445Z" fill="#D4E0E2"/>
<rect x="5.11108" y="18.0447" width="27.0667" height="13.3778" fill="#B6CACE"/>
<path d="M7.5 82L4.46891 72.25H10.5311L7.5 82Z" fill="#D26618"/>
<path d="M10.5 79L7.46891 69.25H13.5311L10.5 79Z" fill="#B64D20"/>
<path d="M3.5 79L0.468911 69.25H6.53109L3.5 79Z" fill="#B64D20"/>
<path d="M29.5 82L26.4689 72.25H32.5311L29.5 82Z" fill="#D26618"/>
<path d="M33.5 79L30.4689 69.25H36.5311L33.5 79Z" fill="#B64D20"/>
<path d="M26.5 79L23.4689 69.25H29.5311L26.5 79Z" fill="#B64D20"/>
</svg>
