<svg width="119" height="51" viewBox="0 0 119 51" fill="none" xmlns="http://www.w3.org/2000/svg">
<circle cx="59.5" cy="25.5" r="8.5" fill="#294774" fill-opacity="0.44"/>
<circle cx="59.5" cy="25.5" r="11.5" fill="#294774" fill-opacity="0.44"/>
<path d="M2.64935 37L0 30.3559L3.97403 23H10.3766L17 24.8983V31.0678L9.71429 37H2.64935Z" fill="#2E5777"/>
<path d="M89.1948 35L92 41.1695L87.7922 48H81.013L74 46.2373V40.5085L81.7143 35H89.1948Z" fill="#2E5777"/>
<path d="M116.195 12L119 18.1695L114.792 25H108.013L101 23.2373V17.5085L108.714 12H116.195Z" fill="#2E5777"/>
<path d="M29.974 33L32 37.7458L28.961 43H24.0649L19 41.6441V37.2373L24.5714 33H29.974Z" fill="#2E5777"/>
<path d="M39.1818 29L37 24.7288L40.2727 20H45.5455L51 21.2203V25.1864L45 29H39.1818Z" fill="#2E5777"/>
<path d="M61.1818 9L59 4.72881L62.2727 0H67.5455L73 1.22034V5.18644L67 9H61.1818Z" fill="#2E5777"/>
<path d="M41.974 4L44 8.27119L40.961 13H36.0649L31 11.7797V7.81356L36.5714 4H41.974Z" fill="#2E5777"/>
<path d="M47.1818 51L45 46.7288L48.2727 42H53.5455L59 43.2203V47.1864L53 51H47.1818Z" fill="#2E5777"/>
<path d="M80.1818 22L78 17.2542L81.2727 12H86.5455L92 13.3559V17.7627L86 22H80.1818Z" fill="#2E5777"/>
</svg>
