<svg width="118" height="27" viewBox="0 0 118 27" fill="none" xmlns="http://www.w3.org/2000/svg">
<path fill-rule="evenodd" clip-rule="evenodd" d="M3.05176e-05 27H117.996C117.999 26.9103 118 26.8203 118 26.73C118 20.9144 113.07 16.2 106.989 16.2C105.795 16.2 104.645 16.3819 103.568 16.7182C100.9 12.2172 95.8459 9.18 90.0496 9.18C87.8937 9.18 85.8405 9.60015 83.9746 10.3595C78.2789 4.01729 69.8326 0 60.405 0C54.107 0 48.2469 1.79286 43.3522 4.87402C40.4288 3.15283 36.9863 2.16 33.3014 2.16C24.1425 2.16 16.4816 8.2935 14.5648 16.4998C13.6913 16.3037 12.7806 16.2 11.8446 16.2C5.48502 16.2 0.294754 20.9878 3.05176e-05 27Z" fill="#2F376B"/>
</svg>
