<svg width="129" height="89" viewBox="0 0 129 89" fill="none" xmlns="http://www.w3.org/2000/svg">
<g clip-path="url(#clip0_99_390)">
<circle cx="65" cy="44.1729" r="44" fill="#2D547E"/>
<path fill-rule="evenodd" clip-rule="evenodd" d="M72.8358 58.2206C108.155 37.277 133.055 14.005 128.452 6.24121C123.848 -1.52259 91.4838 9.16176 56.1642 30.1054C20.8446 51.049 -4.05554 74.321 0.548195 82.0848C5.15194 89.8486 37.5162 79.1642 72.8358 58.2206ZM68.1146 50.2588C93.9013 34.968 113.187 19.8432 111.191 16.4765C109.194 13.1098 86.6719 22.7763 60.8852 38.0671C35.0986 53.3579 15.8128 68.4828 17.8091 71.8494C19.8055 75.2161 42.328 65.5496 68.1146 50.2588Z" fill="#3E6584"/>
<path fill-rule="evenodd" clip-rule="evenodd" d="M103 21.7289C95.3543 8.72701 81.2186 0.000160139 65.0446 0.000160139C40.7441 0.000160139 21.0446 19.6996 21.0446 44.0002C21.0446 51.6753 23.0098 58.8914 26.4643 65.1729L103 21.7289Z" fill="#2D547E"/>
</g>
<defs>
<clipPath id="clip0_99_390">
<rect width="129" height="88.1727" fill="white"/>
</clipPath>
</defs>
</svg>
